<svg xmlns="http://www.w3.org/2000/svg" viewBox="0 0 1000 1000" width="1000" height="1000">
  <title>Pacheesi Board - Empty Layout (Rough)</title>
  <desc>Rough empty Pacheesi board with four arms and center home area.</desc>

  <rect width="1000" height="1000" fill="#f6f1e6"/>

  <!-- Board base -->
  <rect x="100" y="100" width="800" height="800" rx="16" fill="#fffdf7" stroke="#333" stroke-width="6"/>

  <!-- Four colored nests (rough) -->
  <rect x="120" y="120" width="280" height="280" fill="#f7c6c6" stroke="#333" stroke-width="3"/>
  <rect x="600" y="120" width="280" height="280" fill="#c6d9f7" stroke="#333" stroke-width="3"/>
  <rect x="120" y="600" width="280" height="280" fill="#f7e7a8" stroke="#333" stroke-width="3"/>
  <rect x="600" y="600" width="280" height="280" fill="#c8efc8" stroke="#333" stroke-width="3"/>

  <!-- Four arms (3x8 each, not overlapping HOME disc) -->
  <rect x="410" y="110" width="180" height="240" fill="#f0ece2" stroke="#333" stroke-width="3"/>
  <rect x="410" y="650" width="180" height="240" fill="#f0ece2" stroke="#333" stroke-width="3"/>
  <rect x="110" y="410" width="240" height="180" fill="#f0ece2" stroke="#333" stroke-width="3"/>
  <rect x="650" y="410" width="240" height="180" fill="#f0ece2" stroke="#333" stroke-width="3"/>

  <!-- Home rows: inner middle cells of each arm (outermost cell stays outer track) -->
  <rect x="470" y="140" width="60" height="210" fill="#f7c6c6"/>
  <rect x="650" y="470" width="210" height="60" fill="#c6d9f7"/>
  <rect x="470" y="650" width="60" height="210" fill="#c8efc8"/>
  <rect x="140" y="470" width="210" height="60" fill="#f7e7a8"/>

  <!-- Center home (round disc) -->
  <circle cx="500" cy="500" r="150" fill="#fff" stroke="#333" stroke-width="4"/>

  <!-- Arm lane guides: 3x8 per arm -->
  <g stroke="#666" stroke-width="1" fill="none" opacity="0.85">
    <!-- Top arm (3x8) -->
    <line x1="470" y1="110" x2="470" y2="350"/>
    <line x1="530" y1="110" x2="530" y2="350"/>
    <line x1="410" y1="140" x2="590" y2="140"/>
    <line x1="410" y1="170" x2="590" y2="170"/>
    <line x1="410" y1="200" x2="590" y2="200"/>
    <line x1="410" y1="230" x2="590" y2="230"/>
    <line x1="410" y1="260" x2="590" y2="260"/>
    <line x1="410" y1="290" x2="590" y2="290"/>
    <line x1="410" y1="320" x2="590" y2="320"/>

    <!-- Bottom arm (3x8) -->
    <line x1="470" y1="650" x2="470" y2="890"/>
    <line x1="530" y1="650" x2="530" y2="890"/>
    <line x1="410" y1="680" x2="590" y2="680"/>
    <line x1="410" y1="710" x2="590" y2="710"/>
    <line x1="410" y1="740" x2="590" y2="740"/>
    <line x1="410" y1="770" x2="590" y2="770"/>
    <line x1="410" y1="800" x2="590" y2="800"/>
    <line x1="410" y1="830" x2="590" y2="830"/>
    <line x1="410" y1="860" x2="590" y2="860"/>

    <!-- Left arm (3x8) -->
    <line x1="140" y1="410" x2="140" y2="590"/>
    <line x1="170" y1="410" x2="170" y2="590"/>
    <line x1="200" y1="410" x2="200" y2="590"/>
    <line x1="230" y1="410" x2="230" y2="590"/>
    <line x1="260" y1="410" x2="260" y2="590"/>
    <line x1="290" y1="410" x2="290" y2="590"/>
    <line x1="320" y1="410" x2="320" y2="590"/>
    <line x1="110" y1="470" x2="350" y2="470"/>
    <line x1="110" y1="530" x2="350" y2="530"/>

    <!-- Right arm (3x8) -->
    <line x1="680" y1="410" x2="680" y2="590"/>
    <line x1="710" y1="410" x2="710" y2="590"/>
    <line x1="740" y1="410" x2="740" y2="590"/>
    <line x1="770" y1="410" x2="770" y2="590"/>
    <line x1="800" y1="410" x2="800" y2="590"/>
    <line x1="830" y1="410" x2="830" y2="590"/>
    <line x1="860" y1="410" x2="860" y2="590"/>
    <line x1="650" y1="470" x2="890" y2="470"/>
    <line x1="650" y1="530" x2="890" y2="530"/>
  </g>

  <!-- Outer track fields (1..68, counter-clockwise) -->
  <g id="outer-track-fields">
    <g id="outer-track-field-entries" fill="none" stroke="#222" stroke-width="1" stroke-opacity="0.35">
      <g id="otf-1" data-field="1" data-arm="green">
        <rect x="530" y="860" width="60" height="30"/>
        <text x="588" y="890" font-family="Segoe UI, Arial, sans-serif" font-size="10" fill="#111" text-anchor="end" dominant-baseline="text-after-edge">1</text>
      </g>
      <g id="otf-2" data-field="2" data-arm="green">
        <rect x="530" y="830" width="60" height="30"/>
        <text x="588" y="860" font-family="Segoe UI, Arial, sans-serif" font-size="10" fill="#111" text-anchor="end" dominant-baseline="text-after-edge">2</text>
      </g>
      <g id="otf-3" data-field="3" data-arm="green">
        <rect x="530" y="800" width="60" height="30"/>
        <text x="588" y="830" font-family="Segoe UI, Arial, sans-serif" font-size="10" fill="#111" text-anchor="end" dominant-baseline="text-after-edge">3</text>
      </g>
      <g id="otf-4" data-field="4" data-arm="green">
        <rect x="530" y="770" width="60" height="30"/>
        <text x="588" y="800" font-family="Segoe UI, Arial, sans-serif" font-size="10" fill="#111" text-anchor="end" dominant-baseline="text-after-edge">4</text>
      </g>
      <g id="otf-5" data-field="5" data-arm="green">
        <rect x="530" y="740" width="60" height="30" fill="#c8efc8"/>
        <text x="588" y="770" font-family="Segoe UI, Arial, sans-serif" font-size="10" fill="#111" text-anchor="end" dominant-baseline="text-after-edge">5</text>
      </g>
      <g id="otf-6" data-field="6" data-arm="green">
        <rect x="530" y="710" width="60" height="30"/>
        <text x="588" y="740" font-family="Segoe UI, Arial, sans-serif" font-size="10" fill="#111" text-anchor="end" dominant-baseline="text-after-edge">6</text>
      </g>
      <g id="otf-7" data-field="7" data-arm="green">
        <rect x="530" y="680" width="60" height="30"/>
        <text x="588" y="710" font-family="Segoe UI, Arial, sans-serif" font-size="10" fill="#111" text-anchor="end" dominant-baseline="text-after-edge">7</text>
      </g>
      <g id="otf-8" data-field="8" data-arm="green">
        <rect x="530" y="650" width="60" height="30"/>
        <text x="588" y="680" font-family="Segoe UI, Arial, sans-serif" font-size="10" fill="#111" text-anchor="end" dominant-baseline="text-after-edge">8</text>
      </g>
      <g id="otf-9" data-field="9" data-arm="blue">
        <rect x="650" y="530" width="30" height="60"/>
        <text x="680" y="532" font-family="Segoe UI, Arial, sans-serif" font-size="10" fill="#111" text-anchor="end" dominant-baseline="text-after-edge" transform="rotate(-90 680 532)">9</text>
      </g>
      <g id="otf-10" data-field="10" data-arm="blue">
        <rect x="680" y="530" width="30" height="60"/>
        <text x="710" y="532" font-family="Segoe UI, Arial, sans-serif" font-size="10" fill="#111" text-anchor="end" dominant-baseline="text-after-edge" transform="rotate(-90 710 532)">10</text>
      </g>
      <g id="otf-11" data-field="11" data-arm="blue">
        <rect x="710" y="530" width="30" height="60"/>
        <text x="740" y="532" font-family="Segoe UI, Arial, sans-serif" font-size="10" fill="#111" text-anchor="end" dominant-baseline="text-after-edge" transform="rotate(-90 740 532)">11</text>
      </g>
      <g id="otf-12" data-field="12" data-arm="blue">
        <rect x="740" y="530" width="30" height="60"/>
        <text x="770" y="532" font-family="Segoe UI, Arial, sans-serif" font-size="10" fill="#111" text-anchor="end" dominant-baseline="text-after-edge" transform="rotate(-90 770 532)">12</text>
      </g>
      <g id="otf-13" data-field="13" data-arm="blue">
        <rect x="770" y="530" width="30" height="60"/>
        <text x="800" y="532" font-family="Segoe UI, Arial, sans-serif" font-size="10" fill="#111" text-anchor="end" dominant-baseline="text-after-edge" transform="rotate(-90 800 532)">13</text>
      </g>
      <g id="otf-14" data-field="14" data-arm="blue">
        <rect x="800" y="530" width="30" height="60"/>
        <text x="830" y="532" font-family="Segoe UI, Arial, sans-serif" font-size="10" fill="#111" text-anchor="end" dominant-baseline="text-after-edge" transform="rotate(-90 830 532)">14</text>
      </g>
      <g id="otf-15" data-field="15" data-arm="blue">
        <rect x="830" y="530" width="30" height="60"/>
        <text x="860" y="532" font-family="Segoe UI, Arial, sans-serif" font-size="10" fill="#111" text-anchor="end" dominant-baseline="text-after-edge" transform="rotate(-90 860 532)">15</text>
      </g>
      <g id="otf-16" data-field="16" data-arm="blue">
        <rect x="860" y="530" width="30" height="60"/>
        <text x="890" y="532" font-family="Segoe UI, Arial, sans-serif" font-size="10" fill="#111" text-anchor="end" dominant-baseline="text-after-edge" transform="rotate(-90 890 532)">16</text>
      </g>
      <g id="otf-17" data-field="17" data-arm="blue">
        <rect x="860" y="470" width="30" height="60"/>
        <text x="890" y="472" font-family="Segoe UI, Arial, sans-serif" font-size="10" fill="#111" text-anchor="end" dominant-baseline="text-after-edge" transform="rotate(-90 890 472)">17</text>
      </g>
      <g id="otf-18" data-field="18" data-arm="blue">
        <rect x="860" y="410" width="30" height="60"/>
        <text x="890" y="412" font-family="Segoe UI, Arial, sans-serif" font-size="10" fill="#111" text-anchor="end" dominant-baseline="text-after-edge" transform="rotate(-90 890 412)">18</text>
      </g>
      <g id="otf-19" data-field="19" data-arm="blue">
        <rect x="830" y="410" width="30" height="60"/>
        <text x="860" y="412" font-family="Segoe UI, Arial, sans-serif" font-size="10" fill="#111" text-anchor="end" dominant-baseline="text-after-edge" transform="rotate(-90 860 412)">19</text>
      </g>
      <g id="otf-20" data-field="20" data-arm="blue">
        <rect x="800" y="410" width="30" height="60"/>
        <text x="830" y="412" font-family="Segoe UI, Arial, sans-serif" font-size="10" fill="#111" text-anchor="end" dominant-baseline="text-after-edge" transform="rotate(-90 830 412)">20</text>
      </g>
      <g id="otf-21" data-field="21" data-arm="blue">
        <rect x="770" y="410" width="30" height="60"/>
        <text x="800" y="412" font-family="Segoe UI, Arial, sans-serif" font-size="10" fill="#111" text-anchor="end" dominant-baseline="text-after-edge" transform="rotate(-90 800 412)">21</text>
      </g>
      <g id="otf-22" data-field="22" data-arm="blue">
        <rect x="740" y="410" width="30" height="60" fill="#c6d9f7"/>
        <text x="770" y="412" font-family="Segoe UI, Arial, sans-serif" font-size="10" fill="#111" text-anchor="end" dominant-baseline="text-after-edge" transform="rotate(-90 770 412)">22</text>
      </g>
      <g id="otf-23" data-field="23" data-arm="blue">
        <rect x="710" y="410" width="30" height="60"/>
        <text x="740" y="412" font-family="Segoe UI, Arial, sans-serif" font-size="10" fill="#111" text-anchor="end" dominant-baseline="text-after-edge" transform="rotate(-90 740 412)">23</text>
      </g>
      <g id="otf-24" data-field="24" data-arm="blue">
        <rect x="680" y="410" width="30" height="60"/>
        <text x="710" y="412" font-family="Segoe UI, Arial, sans-serif" font-size="10" fill="#111" text-anchor="end" dominant-baseline="text-after-edge" transform="rotate(-90 710 412)">24</text>
      </g>
      <g id="otf-25" data-field="25" data-arm="blue">
        <rect x="650" y="410" width="30" height="60"/>
        <text x="680" y="412" font-family="Segoe UI, Arial, sans-serif" font-size="10" fill="#111" text-anchor="end" dominant-baseline="text-after-edge" transform="rotate(-90 680 412)">25</text>
      </g>
      <g id="otf-26" data-field="26" data-arm="red">
        <rect x="530" y="320" width="60" height="30"/>
        <text x="532" y="320" font-family="Segoe UI, Arial, sans-serif" font-size="10" fill="#111" text-anchor="end" dominant-baseline="text-after-edge" transform="rotate(180 532 320)">26</text>
      </g>
      <g id="otf-27" data-field="27" data-arm="red">
        <rect x="530" y="290" width="60" height="30"/>
        <text x="532" y="290" font-family="Segoe UI, Arial, sans-serif" font-size="10" fill="#111" text-anchor="end" dominant-baseline="text-after-edge" transform="rotate(180 532 290)">27</text>
      </g>
      <g id="otf-28" data-field="28" data-arm="red">
        <rect x="530" y="260" width="60" height="30"/>
        <text x="532" y="260" font-family="Segoe UI, Arial, sans-serif" font-size="10" fill="#111" text-anchor="end" dominant-baseline="text-after-edge" transform="rotate(180 532 260)">28</text>
      </g>
      <g id="otf-29" data-field="29" data-arm="red">
        <rect x="530" y="230" width="60" height="30"/>
        <text x="532" y="230" font-family="Segoe UI, Arial, sans-serif" font-size="10" fill="#111" text-anchor="end" dominant-baseline="text-after-edge" transform="rotate(180 532 230)">29</text>
      </g>
      <g id="otf-30" data-field="30" data-arm="red">
        <rect x="530" y="200" width="60" height="30"/>
        <text x="532" y="200" font-family="Segoe UI, Arial, sans-serif" font-size="10" fill="#111" text-anchor="end" dominant-baseline="text-after-edge" transform="rotate(180 532 200)">30</text>
      </g>
      <g id="otf-31" data-field="31" data-arm="red">
        <rect x="530" y="170" width="60" height="30"/>
        <text x="532" y="170" font-family="Segoe UI, Arial, sans-serif" font-size="10" fill="#111" text-anchor="end" dominant-baseline="text-after-edge" transform="rotate(180 532 170)">31</text>
      </g>
      <g id="otf-32" data-field="32" data-arm="red">
        <rect x="530" y="140" width="60" height="30"/>
        <text x="532" y="140" font-family="Segoe UI, Arial, sans-serif" font-size="10" fill="#111" text-anchor="end" dominant-baseline="text-after-edge" transform="rotate(180 532 140)">32</text>
      </g>
      <g id="otf-33" data-field="33" data-arm="red">
        <rect x="530" y="110" width="60" height="30"/>
        <text x="532" y="110" font-family="Segoe UI, Arial, sans-serif" font-size="10" fill="#111" text-anchor="end" dominant-baseline="text-after-edge" transform="rotate(180 532 110)">33</text>
      </g>
      <g id="otf-34" data-field="34" data-arm="red">
        <rect x="470" y="110" width="60" height="30"/>
        <text x="472" y="110" font-family="Segoe UI, Arial, sans-serif" font-size="10" fill="#111" text-anchor="end" dominant-baseline="text-after-edge" transform="rotate(180 472 110)">34</text>
      </g>
      <g id="otf-35" data-field="35" data-arm="red">
        <rect x="410" y="110" width="60" height="30"/>
        <text x="412" y="110" font-family="Segoe UI, Arial, sans-serif" font-size="10" fill="#111" text-anchor="end" dominant-baseline="text-after-edge" transform="rotate(180 412 110)">35</text>
      </g>
      <g id="otf-36" data-field="36" data-arm="red">
        <rect x="410" y="140" width="60" height="30"/>
        <text x="412" y="140" font-family="Segoe UI, Arial, sans-serif" font-size="10" fill="#111" text-anchor="end" dominant-baseline="text-after-edge" transform="rotate(180 412 140)">36</text>
      </g>
      <g id="otf-37" data-field="37" data-arm="red">
        <rect x="410" y="170" width="60" height="30"/>
        <text x="412" y="170" font-family="Segoe UI, Arial, sans-serif" font-size="10" fill="#111" text-anchor="end" dominant-baseline="text-after-edge" transform="rotate(180 412 170)">37</text>
      </g>
      <g id="otf-38" data-field="38" data-arm="red">
        <rect x="410" y="200" width="60" height="30"/>
        <text x="412" y="200" font-family="Segoe UI, Arial, sans-serif" font-size="10" fill="#111" text-anchor="end" dominant-baseline="text-after-edge" transform="rotate(180 412 200)">38</text>
      </g>
      <g id="otf-39" data-field="39" data-arm="red">
        <rect x="410" y="230" width="60" height="30" fill="#f7c6c6"/>
        <text x="412" y="230" font-family="Segoe UI, Arial, sans-serif" font-size="10" fill="#111" text-anchor="end" dominant-baseline="text-after-edge" transform="rotate(180 412 230)">39</text>
      </g>
      <g id="otf-40" data-field="40" data-arm="red">
        <rect x="410" y="260" width="60" height="30"/>
        <text x="412" y="260" font-family="Segoe UI, Arial, sans-serif" font-size="10" fill="#111" text-anchor="end" dominant-baseline="text-after-edge" transform="rotate(180 412 260)">40</text>
      </g>
      <g id="otf-41" data-field="41" data-arm="red">
        <rect x="410" y="290" width="60" height="30"/>
        <text x="412" y="290" font-family="Segoe UI, Arial, sans-serif" font-size="10" fill="#111" text-anchor="end" dominant-baseline="text-after-edge" transform="rotate(180 412 290)">41</text>
      </g>
      <g id="otf-42" data-field="42" data-arm="red">
        <rect x="410" y="320" width="60" height="30"/>
        <text x="412" y="320" font-family="Segoe UI, Arial, sans-serif" font-size="10" fill="#111" text-anchor="end" dominant-baseline="text-after-edge" transform="rotate(180 412 320)">42</text>
      </g>
      <g id="otf-43" data-field="43" data-arm="yellow">
        <rect x="320" y="410" width="30" height="60"/>
        <text x="320" y="468" font-family="Segoe UI, Arial, sans-serif" font-size="10" fill="#111" text-anchor="end" dominant-baseline="text-after-edge" transform="rotate(90 320 468)">43</text>
      </g>
      <g id="otf-44" data-field="44" data-arm="yellow">
        <rect x="290" y="410" width="30" height="60"/>
        <text x="290" y="468" font-family="Segoe UI, Arial, sans-serif" font-size="10" fill="#111" text-anchor="end" dominant-baseline="text-after-edge" transform="rotate(90 290 468)">44</text>
      </g>
      <g id="otf-45" data-field="45" data-arm="yellow">
        <rect x="260" y="410" width="30" height="60"/>
        <text x="260" y="468" font-family="Segoe UI, Arial, sans-serif" font-size="10" fill="#111" text-anchor="end" dominant-baseline="text-after-edge" transform="rotate(90 260 468)">45</text>
      </g>
      <g id="otf-46" data-field="46" data-arm="yellow">
        <rect x="230" y="410" width="30" height="60"/>
        <text x="230" y="468" font-family="Segoe UI, Arial, sans-serif" font-size="10" fill="#111" text-anchor="end" dominant-baseline="text-after-edge" transform="rotate(90 230 468)">46</text>
      </g>
      <g id="otf-47" data-field="47" data-arm="yellow">
        <rect x="200" y="410" width="30" height="60"/>
        <text x="200" y="468" font-family="Segoe UI, Arial, sans-serif" font-size="10" fill="#111" text-anchor="end" dominant-baseline="text-after-edge" transform="rotate(90 200 468)">47</text>
      </g>
      <g id="otf-48" data-field="48" data-arm="yellow">
        <rect x="170" y="410" width="30" height="60"/>
        <text x="170" y="468" font-family="Segoe UI, Arial, sans-serif" font-size="10" fill="#111" text-anchor="end" dominant-baseline="text-after-edge" transform="rotate(90 170 468)">48</text>
      </g>
      <g id="otf-49" data-field="49" data-arm="yellow">
        <rect x="140" y="410" width="30" height="60"/>
        <text x="140" y="468" font-family="Segoe UI, Arial, sans-serif" font-size="10" fill="#111" text-anchor="end" dominant-baseline="text-after-edge" transform="rotate(90 140 468)">49</text>
      </g>
      <g id="otf-50" data-field="50" data-arm="yellow">
        <rect x="110" y="410" width="30" height="60"/>
        <text x="110" y="468" font-family="Segoe UI, Arial, sans-serif" font-size="10" fill="#111" text-anchor="end" dominant-baseline="text-after-edge" transform="rotate(90 110 468)">50</text>
      </g>
      <g id="otf-51" data-field="51" data-arm="yellow">
        <rect x="110" y="470" width="30" height="60"/>
        <text x="110" y="528" font-family="Segoe UI, Arial, sans-serif" font-size="10" fill="#111" text-anchor="end" dominant-baseline="text-after-edge" transform="rotate(90 110 528)">51</text>
      </g>
      <g id="otf-52" data-field="52" data-arm="yellow">
        <rect x="110" y="530" width="30" height="60"/>
        <text x="110" y="588" font-family="Segoe UI, Arial, sans-serif" font-size="10" fill="#111" text-anchor="end" dominant-baseline="text-after-edge" transform="rotate(90 110 588)">52</text>
      </g>
      <g id="otf-53" data-field="53" data-arm="yellow">
        <rect x="140" y="530" width="30" height="60"/>
        <text x="140" y="588" font-family="Segoe UI, Arial, sans-serif" font-size="10" fill="#111" text-anchor="end" dominant-baseline="text-after-edge" transform="rotate(90 140 588)">53</text>
      </g>
      <g id="otf-54" data-field="54" data-arm="yellow">
        <rect x="170" y="530" width="30" height="60"/>
        <text x="170" y="588" font-family="Segoe UI, Arial, sans-serif" font-size="10" fill="#111" text-anchor="end" dominant-baseline="text-after-edge" transform="rotate(90 170 588)">54</text>
      </g>
      <g id="otf-55" data-field="55" data-arm="yellow">
        <rect x="200" y="530" width="30" height="60"/>
        <text x="200" y="588" font-family="Segoe UI, Arial, sans-serif" font-size="10" fill="#111" text-anchor="end" dominant-baseline="text-after-edge" transform="rotate(90 200 588)">55</text>
      </g>
      <g id="otf-56" data-field="56" data-arm="yellow">
        <rect x="230" y="530" width="30" height="60" fill="#f7e7a8"/>
        <text x="230" y="588" font-family="Segoe UI, Arial, sans-serif" font-size="10" fill="#111" text-anchor="end" dominant-baseline="text-after-edge" transform="rotate(90 230 588)">56</text>
      </g>
      <g id="otf-57" data-field="57" data-arm="yellow">
        <rect x="260" y="530" width="30" height="60"/>
        <text x="260" y="588" font-family="Segoe UI, Arial, sans-serif" font-size="10" fill="#111" text-anchor="end" dominant-baseline="text-after-edge" transform="rotate(90 260 588)">57</text>
      </g>
      <g id="otf-58" data-field="58" data-arm="yellow">
        <rect x="290" y="530" width="30" height="60"/>
        <text x="290" y="588" font-family="Segoe UI, Arial, sans-serif" font-size="10" fill="#111" text-anchor="end" dominant-baseline="text-after-edge" transform="rotate(90 290 588)">58</text>
      </g>
      <g id="otf-59" data-field="59" data-arm="yellow">
        <rect x="320" y="530" width="30" height="60"/>
        <text x="320" y="588" font-family="Segoe UI, Arial, sans-serif" font-size="10" fill="#111" text-anchor="end" dominant-baseline="text-after-edge" transform="rotate(90 320 588)">59</text>
      </g>
      <g id="otf-60" data-field="60" data-arm="green">
        <rect x="410" y="650" width="60" height="30"/>
        <text x="468" y="680" font-family="Segoe UI, Arial, sans-serif" font-size="10" fill="#111" text-anchor="end" dominant-baseline="text-after-edge">60</text>
      </g>
      <g id="otf-61" data-field="61" data-arm="green">
        <rect x="410" y="680" width="60" height="30"/>
        <text x="468" y="710" font-family="Segoe UI, Arial, sans-serif" font-size="10" fill="#111" text-anchor="end" dominant-baseline="text-after-edge">61</text>
      </g>
      <g id="otf-62" data-field="62" data-arm="green">
        <rect x="410" y="710" width="60" height="30"/>
        <text x="468" y="740" font-family="Segoe UI, Arial, sans-serif" font-size="10" fill="#111" text-anchor="end" dominant-baseline="text-after-edge">62</text>
      </g>
      <g id="otf-63" data-field="63" data-arm="green">
        <rect x="410" y="740" width="60" height="30"/>
        <text x="468" y="770" font-family="Segoe UI, Arial, sans-serif" font-size="10" fill="#111" text-anchor="end" dominant-baseline="text-after-edge">63</text>
      </g>
      <g id="otf-64" data-field="64" data-arm="green">
        <rect x="410" y="770" width="60" height="30"/>
        <text x="468" y="800" font-family="Segoe UI, Arial, sans-serif" font-size="10" fill="#111" text-anchor="end" dominant-baseline="text-after-edge">64</text>
      </g>
      <g id="otf-65" data-field="65" data-arm="green">
        <rect x="410" y="800" width="60" height="30"/>
        <text x="468" y="830" font-family="Segoe UI, Arial, sans-serif" font-size="10" fill="#111" text-anchor="end" dominant-baseline="text-after-edge">65</text>
      </g>
      <g id="otf-66" data-field="66" data-arm="green">
        <rect x="410" y="830" width="60" height="30"/>
        <text x="468" y="860" font-family="Segoe UI, Arial, sans-serif" font-size="10" fill="#111" text-anchor="end" dominant-baseline="text-after-edge">66</text>
      </g>
      <g id="otf-67" data-field="67" data-arm="green">
        <rect x="410" y="860" width="60" height="30"/>
        <text x="468" y="890" font-family="Segoe UI, Arial, sans-serif" font-size="10" fill="#111" text-anchor="end" dominant-baseline="text-after-edge">67</text>
      </g>
      <g id="otf-68" data-field="68" data-arm="green">
        <rect x="470" y="860" width="60" height="30"/>
        <text x="528" y="890" font-family="Segoe UI, Arial, sans-serif" font-size="10" fill="#111" text-anchor="end" dominant-baseline="text-after-edge">68</text>
      </g>
    </g>
  </g>

  <!-- Safe spaces (entry + additional safe squares) -->
  <g font-family="Segoe UI Symbol, Segoe UI, Arial, sans-serif" font-size="20" fill="#111" text-anchor="middle" dominant-baseline="middle">
    <text x="500" y="125">★</text>
    <text x="875" y="500">★</text>
    <text x="500" y="875">★</text>
    <text x="125" y="500">★</text>
    <text x="560" y="755">★</text>
    <text x="755" y="560">★</text>
    <text x="755" y="440">★</text>
    <text x="560" y="245">★</text>
    <text x="440" y="245">★</text>
    <text x="245" y="440">★</text>
    <text x="245" y="560">★</text>
    <text x="440" y="755">★</text>
  </g>


  <!-- Labels -->
  <g font-family="Segoe UI, Arial, sans-serif" font-size="24" fill="#222" text-anchor="middle">
    <text x="260" y="95">ROT</text>
    <text x="740" y="95">BLAU</text>
    <text x="260" y="925">GELB</text>
    <text x="740" y="925">GRUEN</text>
    <text x="500" y="507" font-size="28" font-weight="700">HOME</text>
  </g>
</svg>
