<svg xmlns="http://www.w3.org/2000/svg" viewBox="90 90 820 820" width="820" height="820">
  <title>Pacheesi Board - Initial Setup</title>
  <desc>Pacheesi board with four arms and all pawns in starting nests.</desc>

  <defs>
    <g id="safety_space">
      <circle cx="12" cy="12" r="10" fill="#f7f4e8" stroke="#000" stroke-width="0.4"/>
      <g id="arcs">
        <path d="M 12 12 L 22 12 A 10 10 0 0 0 19.071 4.929 Z" fill="#803300" stroke="#000" stroke-width="0"/>
        <path d="M 12 12 L 22 12 A 10 10 0 0 0 19.071 4.929 Z" fill="#e9c6af" stroke="#000" stroke-width="0" transform="rotate(45 12 12)"/>
        <path d="M 12 12 L 22 12 A 10 10 0 0 0 19.071 4.929 Z" fill="#d38d5f" stroke="#000" stroke-width="0" transform="rotate(90 12 12)"/>
        <path d="M 12 12 L 22 12 A 10 10 0 0 0 19.071 4.929 Z" fill="#a05a2c" stroke="#000" stroke-width="0" transform="rotate(135 12 12)"/>
        <path d="M 12 12 L 22 12 A 10 10 0 0 0 19.071 4.929 Z" fill="#803300" stroke="#000" stroke-width="0" transform="rotate(180 12 12)"/>
        <path d="M 12 12 L 22 12 A 10 10 0 0 0 19.071 4.929 Z" fill="#e9c6af" stroke="#000" stroke-width="0" transform="rotate(225 12 12)"/>
        <path d="M 12 12 L 22 12 A 10 10 0 0 0 19.071 4.929 Z" fill="#d38d5f" stroke="#000" stroke-width="0" transform="rotate(270 12 12)"/>
        <path d="M 12 12 L 22 12 A 10 10 0 0 0 19.071 4.929 Z" fill="#a05a2c" stroke="#000" stroke-width="0" transform="rotate(315 12 12)"/>
      </g>
      <g id="center-glyph">
        <text x="12" y="13.1" fill="#000" font-size="16" font-family="Segoe UI Symbol, DejaVu Sans, Arial Unicode MS, sans-serif" text-anchor="middle" dominant-baseline="middle">&#9733;</text>
      </g>
    </g>
    <clipPath id="home-ornament-clip">
      <rect x="390" y="390" width="220" height="220" rx="80"/>
    </clipPath>
    <pattern id="home-azulejo" patternUnits="userSpaceOnUse" width="44" height="44" patternTransform="rotate(45 500 500)">
      <rect x="0" y="0" width="44" height="44" fill="#f5e9d2"/>
      <rect x="2" y="2" width="40" height="40" fill="none" stroke="#a0522d" stroke-width="1.4"/>
      <path d="M 22 4 L 40 22 L 22 40 L 4 22 Z" fill="none" stroke="#8b3a2f" stroke-width="1.2"/>
      <circle cx="22" cy="22" r="4" fill="#c77b4a"/>
    </pattern>
    <g id="home-rosette" fill="none" stroke="#7f2f22" stroke-width="2">
      <path d="M 500 430 C 510 460 540 490 570 500 C 540 510 510 540 500 570 C 490 540 460 510 430 500 C 460 490 490 460 500 430 Z"/>
      <path d="M 500 450 C 507 472 528 493 550 500 C 528 507 507 528 500 550 C 493 528 472 507 450 500 C 472 493 493 472 500 450 Z"/>
      <circle cx="500" cy="500" r="18" fill="#b85f35" stroke="#7f2f22" stroke-width="1.6"/>
      <circle cx="500" cy="500" r="8" fill="#f5e9d2" stroke="none"/>
    </g>
  </defs>

  <rect width="1000" height="1000" fill="#f6f1e6"/>

  <!-- Board base -->
  <rect x="100" y="100" width="800" height="800" rx="16" fill="#fffdf7" stroke="#333" stroke-width="6"/>

  <!-- Four colored nests (rough) -->
  <rect x="115" y="115" width="260" height="260" rx="60" fill="#f7c6c6" stroke="#333" stroke-width="3"/>
  <rect x="625" y="115" width="260" height="260" rx="60" fill="#c6d9f7" stroke="#333" stroke-width="3"/>
  <rect x="115" y="625" width="260" height="260" rx="60" fill="#f7e7a8" stroke="#333" stroke-width="3"/>
  <rect x="625" y="625" width="260" height="260" rx="60" fill="#c8efc8" stroke="#333" stroke-width="3"/>

  <!-- Four arms (3x8 each, not overlapping HOME disc) -->
  <rect x="395" y="110" width="210" height="280" fill="#f0ece2" stroke="#333" stroke-width="3"/>
  <rect x="395" y="610" width="210" height="280" fill="#f0ece2" stroke="#333" stroke-width="3"/>
  <rect x="110" y="395" width="280" height="210" fill="#f0ece2" stroke="#333" stroke-width="3"/>
  <rect x="610" y="395" width="280" height="210" fill="#f0ece2" stroke="#333" stroke-width="3"/>

  <!-- Home rows: inner middle cells of each arm (outermost cell stays outer track) -->
  <rect x="465" y="145" width="70" height="245" fill="#f7c6c6"/>
  <rect x="610" y="465" width="245" height="70" fill="#c6d9f7"/>
  <rect x="465" y="610" width="70" height="245" fill="#c8efc8"/>
  <rect x="145" y="465" width="245" height="70" fill="#f7e7a8"/>

  <!-- Center home (Spanish ornamentation) -->
  <g clip-path="url(#home-ornament-clip)">
    <rect x="390" y="390" width="220" height="220" rx="80" fill="#f0dcc0"/>
    <rect x="390" y="390" width="220" height="220" rx="80" fill="url(#home-azulejo)" opacity="0.85"/>
    <circle cx="500" cy="500" r="84" fill="#e6c89e" stroke="#8b3a2f" stroke-width="2.2"/>
    <circle cx="500" cy="500" r="66" fill="#f5e9d2" stroke="#a0522d" stroke-width="1.8"/>
    <use href="#home-rosette"/>
  </g>
  <rect x="390" y="390" width="220" height="220" rx="80" fill="none" stroke="#333" stroke-width="4"/>

  <!-- Arm lane guides: 3x8 per arm -->
  <g stroke="#666" stroke-width="1" fill="none" opacity="0.85">
    <!-- Top arm (3x8) -->
    <line x1="465" y1="110" x2="465" y2="390"/>
    <line x1="535" y1="110" x2="535" y2="390"/>
    <line x1="395" y1="145" x2="605" y2="145"/>
    <line x1="395" y1="180" x2="605" y2="180"/>
    <line x1="395" y1="215" x2="605" y2="215"/>
    <line x1="395" y1="250" x2="605" y2="250"/>
    <line x1="395" y1="285" x2="605" y2="285"/>
    <line x1="395" y1="320" x2="605" y2="320"/>
    <line x1="395" y1="355" x2="605" y2="355"/>

    <!-- Bottom arm (3x8) -->
    <line x1="465" y1="610" x2="465" y2="890"/>
    <line x1="535" y1="610" x2="535" y2="890"/>
    <line x1="395" y1="645" x2="605" y2="645"/>
    <line x1="395" y1="680" x2="605" y2="680"/>
    <line x1="395" y1="715" x2="605" y2="715"/>
    <line x1="395" y1="750" x2="605" y2="750"/>
    <line x1="395" y1="785" x2="605" y2="785"/>
    <line x1="395" y1="820" x2="605" y2="820"/>
    <line x1="395" y1="855" x2="605" y2="855"/>

    <!-- Left arm (3x8) -->
    <line x1="145" y1="395" x2="145" y2="605"/>
    <line x1="180" y1="395" x2="180" y2="605"/>
    <line x1="215" y1="395" x2="215" y2="605"/>
    <line x1="250" y1="395" x2="250" y2="605"/>
    <line x1="285" y1="395" x2="285" y2="605"/>
    <line x1="320" y1="395" x2="320" y2="605"/>
    <line x1="355" y1="395" x2="355" y2="605"/>
    <line x1="110" y1="465" x2="390" y2="465"/>
    <line x1="110" y1="535" x2="390" y2="535"/>

    <!-- Right arm (3x8) -->
    <line x1="645" y1="395" x2="645" y2="605"/>
    <line x1="680" y1="395" x2="680" y2="605"/>
    <line x1="715" y1="395" x2="715" y2="605"/>
    <line x1="750" y1="395" x2="750" y2="605"/>
    <line x1="785" y1="395" x2="785" y2="605"/>
    <line x1="820" y1="395" x2="820" y2="605"/>
    <line x1="855" y1="395" x2="855" y2="605"/>
    <line x1="610" y1="465" x2="890" y2="465"/>
    <line x1="610" y1="535" x2="890" y2="535"/>
  </g>

  <!-- Outer track fields (1..68, counter-clockwise) -->
  <g id="outer-track-fields">
    <g id="outer-track-field-entries" fill="none" stroke="#222" stroke-width="1" stroke-opacity="0.35">
      <g id="outer-track-fields-bottom-1" transform="translate(500 890) scale(1.1666667) translate(-500 -890)">
      <g id="otf-1" data-field="1" data-arm="green">
        <rect x="530" y="860" width="60" height="30"/>
        <text x="588" y="890" font-family="Segoe UI, Arial, sans-serif" font-size="10" fill="#111" text-anchor="end" dominant-baseline="text-after-edge">1</text>
      </g>
      <g id="otf-2" data-field="2" data-arm="green">
        <rect x="530" y="830" width="60" height="30"/>
        <text x="588" y="860" font-family="Segoe UI, Arial, sans-serif" font-size="10" fill="#111" text-anchor="end" dominant-baseline="text-after-edge">2</text>
      </g>
      <g id="otf-3" data-field="3" data-arm="green">
        <rect x="530" y="800" width="60" height="30"/>
        <text x="588" y="830" font-family="Segoe UI, Arial, sans-serif" font-size="10" fill="#111" text-anchor="end" dominant-baseline="text-after-edge">3</text>
      </g>
      <g id="otf-4" data-field="4" data-arm="green">
        <rect x="530" y="770" width="60" height="30"/>
        <text x="588" y="800" font-family="Segoe UI, Arial, sans-serif" font-size="10" fill="#111" text-anchor="end" dominant-baseline="text-after-edge">4</text>
      </g>
      <g id="otf-5" data-field="5" data-arm="green">
        <rect x="530" y="740" width="60" height="30" fill="#c8efc8"/>
        <text x="588" y="770" font-family="Segoe UI, Arial, sans-serif" font-size="10" fill="#111" text-anchor="end" dominant-baseline="text-after-edge">5</text>
      </g>
      <g id="otf-6" data-field="6" data-arm="green">
        <rect x="530" y="710" width="60" height="30"/>
        <text x="588" y="740" font-family="Segoe UI, Arial, sans-serif" font-size="10" fill="#111" text-anchor="end" dominant-baseline="text-after-edge">6</text>
      </g>
      <g id="otf-7" data-field="7" data-arm="green">
        <rect x="530" y="680" width="60" height="30"/>
        <text x="588" y="710" font-family="Segoe UI, Arial, sans-serif" font-size="10" fill="#111" text-anchor="end" dominant-baseline="text-after-edge">7</text>
      </g>
      <g id="otf-8" data-field="8" data-arm="green">
        <rect x="530" y="650" width="60" height="30"/>
        <text x="588" y="680" font-family="Segoe UI, Arial, sans-serif" font-size="10" fill="#111" text-anchor="end" dominant-baseline="text-after-edge">8</text>
      </g>
      </g>
      <g id="outer-track-fields-right" transform="translate(890 500) scale(1.1666667) translate(-890 -500)">
      <g id="otf-9" data-field="9" data-arm="blue">
        <rect x="650" y="530" width="30" height="60"/>
        <text x="680" y="532" font-family="Segoe UI, Arial, sans-serif" font-size="10" fill="#111" text-anchor="end" dominant-baseline="text-after-edge" transform="rotate(-90 680 532)">9</text>
      </g>
      <g id="otf-10" data-field="10" data-arm="blue">
        <rect x="680" y="530" width="30" height="60"/>
        <text x="710" y="532" font-family="Segoe UI, Arial, sans-serif" font-size="10" fill="#111" text-anchor="end" dominant-baseline="text-after-edge" transform="rotate(-90 710 532)">10</text>
      </g>
      <g id="otf-11" data-field="11" data-arm="blue">
        <rect x="710" y="530" width="30" height="60"/>
        <text x="740" y="532" font-family="Segoe UI, Arial, sans-serif" font-size="10" fill="#111" text-anchor="end" dominant-baseline="text-after-edge" transform="rotate(-90 740 532)">11</text>
      </g>
      <g id="otf-12" data-field="12" data-arm="blue">
        <rect x="740" y="530" width="30" height="60"/>
        <text x="770" y="532" font-family="Segoe UI, Arial, sans-serif" font-size="10" fill="#111" text-anchor="end" dominant-baseline="text-after-edge" transform="rotate(-90 770 532)">12</text>
      </g>
      <g id="otf-13" data-field="13" data-arm="blue">
        <rect x="770" y="530" width="30" height="60"/>
        <text x="800" y="532" font-family="Segoe UI, Arial, sans-serif" font-size="10" fill="#111" text-anchor="end" dominant-baseline="text-after-edge" transform="rotate(-90 800 532)">13</text>
      </g>
      <g id="otf-14" data-field="14" data-arm="blue">
        <rect x="800" y="530" width="30" height="60"/>
        <text x="830" y="532" font-family="Segoe UI, Arial, sans-serif" font-size="10" fill="#111" text-anchor="end" dominant-baseline="text-after-edge" transform="rotate(-90 830 532)">14</text>
      </g>
      <g id="otf-15" data-field="15" data-arm="blue">
        <rect x="830" y="530" width="30" height="60"/>
        <text x="860" y="532" font-family="Segoe UI, Arial, sans-serif" font-size="10" fill="#111" text-anchor="end" dominant-baseline="text-after-edge" transform="rotate(-90 860 532)">15</text>
      </g>
      <g id="otf-16" data-field="16" data-arm="blue">
        <rect x="860" y="530" width="30" height="60"/>
        <text x="890" y="532" font-family="Segoe UI, Arial, sans-serif" font-size="10" fill="#111" text-anchor="end" dominant-baseline="text-after-edge" transform="rotate(-90 890 532)">16</text>
      </g>
      <g id="otf-17" data-field="17" data-arm="blue">
        <rect x="860" y="470" width="30" height="60"/>
        <text x="890" y="472" font-family="Segoe UI, Arial, sans-serif" font-size="10" fill="#111" text-anchor="end" dominant-baseline="text-after-edge" transform="rotate(-90 890 472)">17</text>
      </g>
      <g id="otf-18" data-field="18" data-arm="blue">
        <rect x="860" y="410" width="30" height="60"/>
        <text x="890" y="412" font-family="Segoe UI, Arial, sans-serif" font-size="10" fill="#111" text-anchor="end" dominant-baseline="text-after-edge" transform="rotate(-90 890 412)">18</text>
      </g>
      <g id="otf-19" data-field="19" data-arm="blue">
        <rect x="830" y="410" width="30" height="60"/>
        <text x="860" y="412" font-family="Segoe UI, Arial, sans-serif" font-size="10" fill="#111" text-anchor="end" dominant-baseline="text-after-edge" transform="rotate(-90 860 412)">19</text>
      </g>
      <g id="otf-20" data-field="20" data-arm="blue">
        <rect x="800" y="410" width="30" height="60"/>
        <text x="830" y="412" font-family="Segoe UI, Arial, sans-serif" font-size="10" fill="#111" text-anchor="end" dominant-baseline="text-after-edge" transform="rotate(-90 830 412)">20</text>
      </g>
      <g id="otf-21" data-field="21" data-arm="blue">
        <rect x="770" y="410" width="30" height="60"/>
        <text x="800" y="412" font-family="Segoe UI, Arial, sans-serif" font-size="10" fill="#111" text-anchor="end" dominant-baseline="text-after-edge" transform="rotate(-90 800 412)">21</text>
      </g>
      <g id="otf-22" data-field="22" data-arm="blue">
        <rect x="740" y="410" width="30" height="60" fill="#c6d9f7"/>
        <text x="770" y="412" font-family="Segoe UI, Arial, sans-serif" font-size="10" fill="#111" text-anchor="end" dominant-baseline="text-after-edge" transform="rotate(-90 770 412)">22</text>
      </g>
      <g id="otf-23" data-field="23" data-arm="blue">
        <rect x="710" y="410" width="30" height="60"/>
        <text x="740" y="412" font-family="Segoe UI, Arial, sans-serif" font-size="10" fill="#111" text-anchor="end" dominant-baseline="text-after-edge" transform="rotate(-90 740 412)">23</text>
      </g>
      <g id="otf-24" data-field="24" data-arm="blue">
        <rect x="680" y="410" width="30" height="60"/>
        <text x="710" y="412" font-family="Segoe UI, Arial, sans-serif" font-size="10" fill="#111" text-anchor="end" dominant-baseline="text-after-edge" transform="rotate(-90 710 412)">24</text>
      </g>
      <g id="otf-25" data-field="25" data-arm="blue">
        <rect x="650" y="410" width="30" height="60"/>
        <text x="680" y="412" font-family="Segoe UI, Arial, sans-serif" font-size="10" fill="#111" text-anchor="end" dominant-baseline="text-after-edge" transform="rotate(-90 680 412)">25</text>
      </g>
      </g>
      <g id="outer-track-fields-top" transform="translate(500 110) scale(1.1666667) translate(-500 -110)">
      <g id="otf-26" data-field="26" data-arm="red">
        <rect x="530" y="320" width="60" height="30"/>
        <text x="532" y="320" font-family="Segoe UI, Arial, sans-serif" font-size="10" fill="#111" text-anchor="end" dominant-baseline="text-after-edge" transform="rotate(180 532 320)">26</text>
      </g>
      <g id="otf-27" data-field="27" data-arm="red">
        <rect x="530" y="290" width="60" height="30"/>
        <text x="532" y="290" font-family="Segoe UI, Arial, sans-serif" font-size="10" fill="#111" text-anchor="end" dominant-baseline="text-after-edge" transform="rotate(180 532 290)">27</text>
      </g>
      <g id="otf-28" data-field="28" data-arm="red">
        <rect x="530" y="260" width="60" height="30"/>
        <text x="532" y="260" font-family="Segoe UI, Arial, sans-serif" font-size="10" fill="#111" text-anchor="end" dominant-baseline="text-after-edge" transform="rotate(180 532 260)">28</text>
      </g>
      <g id="otf-29" data-field="29" data-arm="red">
        <rect x="530" y="230" width="60" height="30"/>
        <text x="532" y="230" font-family="Segoe UI, Arial, sans-serif" font-size="10" fill="#111" text-anchor="end" dominant-baseline="text-after-edge" transform="rotate(180 532 230)">29</text>
      </g>
      <g id="otf-30" data-field="30" data-arm="red">
        <rect x="530" y="200" width="60" height="30"/>
        <text x="532" y="200" font-family="Segoe UI, Arial, sans-serif" font-size="10" fill="#111" text-anchor="end" dominant-baseline="text-after-edge" transform="rotate(180 532 200)">30</text>
      </g>
      <g id="otf-31" data-field="31" data-arm="red">
        <rect x="530" y="170" width="60" height="30"/>
        <text x="532" y="170" font-family="Segoe UI, Arial, sans-serif" font-size="10" fill="#111" text-anchor="end" dominant-baseline="text-after-edge" transform="rotate(180 532 170)">31</text>
      </g>
      <g id="otf-32" data-field="32" data-arm="red">
        <rect x="530" y="140" width="60" height="30"/>
        <text x="532" y="140" font-family="Segoe UI, Arial, sans-serif" font-size="10" fill="#111" text-anchor="end" dominant-baseline="text-after-edge" transform="rotate(180 532 140)">32</text>
      </g>
      <g id="otf-33" data-field="33" data-arm="red">
        <rect x="530" y="110" width="60" height="30"/>
        <text x="532" y="110" font-family="Segoe UI, Arial, sans-serif" font-size="10" fill="#111" text-anchor="end" dominant-baseline="text-after-edge" transform="rotate(180 532 110)">33</text>
      </g>
      <g id="otf-34" data-field="34" data-arm="red">
        <rect x="470" y="110" width="60" height="30"/>
        <text x="472" y="110" font-family="Segoe UI, Arial, sans-serif" font-size="10" fill="#111" text-anchor="end" dominant-baseline="text-after-edge" transform="rotate(180 472 110)">34</text>
      </g>
      <g id="otf-35" data-field="35" data-arm="red">
        <rect x="410" y="110" width="60" height="30"/>
        <text x="412" y="110" font-family="Segoe UI, Arial, sans-serif" font-size="10" fill="#111" text-anchor="end" dominant-baseline="text-after-edge" transform="rotate(180 412 110)">35</text>
      </g>
      <g id="otf-36" data-field="36" data-arm="red">
        <rect x="410" y="140" width="60" height="30"/>
        <text x="412" y="140" font-family="Segoe UI, Arial, sans-serif" font-size="10" fill="#111" text-anchor="end" dominant-baseline="text-after-edge" transform="rotate(180 412 140)">36</text>
      </g>
      <g id="otf-37" data-field="37" data-arm="red">
        <rect x="410" y="170" width="60" height="30"/>
        <text x="412" y="170" font-family="Segoe UI, Arial, sans-serif" font-size="10" fill="#111" text-anchor="end" dominant-baseline="text-after-edge" transform="rotate(180 412 170)">37</text>
      </g>
      <g id="otf-38" data-field="38" data-arm="red">
        <rect x="410" y="200" width="60" height="30"/>
        <text x="412" y="200" font-family="Segoe UI, Arial, sans-serif" font-size="10" fill="#111" text-anchor="end" dominant-baseline="text-after-edge" transform="rotate(180 412 200)">38</text>
      </g>
      <g id="otf-39" data-field="39" data-arm="red">
        <rect x="410" y="230" width="60" height="30" fill="#f7c6c6"/>
        <text x="412" y="230" font-family="Segoe UI, Arial, sans-serif" font-size="10" fill="#111" text-anchor="end" dominant-baseline="text-after-edge" transform="rotate(180 412 230)">39</text>
      </g>
      <g id="otf-40" data-field="40" data-arm="red">
        <rect x="410" y="260" width="60" height="30"/>
        <text x="412" y="260" font-family="Segoe UI, Arial, sans-serif" font-size="10" fill="#111" text-anchor="end" dominant-baseline="text-after-edge" transform="rotate(180 412 260)">40</text>
      </g>
      <g id="otf-41" data-field="41" data-arm="red">
        <rect x="410" y="290" width="60" height="30"/>
        <text x="412" y="290" font-family="Segoe UI, Arial, sans-serif" font-size="10" fill="#111" text-anchor="end" dominant-baseline="text-after-edge" transform="rotate(180 412 290)">41</text>
      </g>
      <g id="otf-42" data-field="42" data-arm="red">
        <rect x="410" y="320" width="60" height="30"/>
        <text x="412" y="320" font-family="Segoe UI, Arial, sans-serif" font-size="10" fill="#111" text-anchor="end" dominant-baseline="text-after-edge" transform="rotate(180 412 320)">42</text>
      </g>
      </g>
      <g id="outer-track-fields-left" transform="translate(110 500) scale(1.1666667) translate(-110 -500)">
      <g id="otf-43" data-field="43" data-arm="yellow">
        <rect x="320" y="410" width="30" height="60"/>
        <text x="320" y="468" font-family="Segoe UI, Arial, sans-serif" font-size="10" fill="#111" text-anchor="end" dominant-baseline="text-after-edge" transform="rotate(90 320 468)">43</text>
      </g>
      <g id="otf-44" data-field="44" data-arm="yellow">
        <rect x="290" y="410" width="30" height="60"/>
        <text x="290" y="468" font-family="Segoe UI, Arial, sans-serif" font-size="10" fill="#111" text-anchor="end" dominant-baseline="text-after-edge" transform="rotate(90 290 468)">44</text>
      </g>
      <g id="otf-45" data-field="45" data-arm="yellow">
        <rect x="260" y="410" width="30" height="60"/>
        <text x="260" y="468" font-family="Segoe UI, Arial, sans-serif" font-size="10" fill="#111" text-anchor="end" dominant-baseline="text-after-edge" transform="rotate(90 260 468)">45</text>
      </g>
      <g id="otf-46" data-field="46" data-arm="yellow">
        <rect x="230" y="410" width="30" height="60"/>
        <text x="230" y="468" font-family="Segoe UI, Arial, sans-serif" font-size="10" fill="#111" text-anchor="end" dominant-baseline="text-after-edge" transform="rotate(90 230 468)">46</text>
      </g>
      <g id="otf-47" data-field="47" data-arm="yellow">
        <rect x="200" y="410" width="30" height="60"/>
        <text x="200" y="468" font-family="Segoe UI, Arial, sans-serif" font-size="10" fill="#111" text-anchor="end" dominant-baseline="text-after-edge" transform="rotate(90 200 468)">47</text>
      </g>
      <g id="otf-48" data-field="48" data-arm="yellow">
        <rect x="170" y="410" width="30" height="60"/>
        <text x="170" y="468" font-family="Segoe UI, Arial, sans-serif" font-size="10" fill="#111" text-anchor="end" dominant-baseline="text-after-edge" transform="rotate(90 170 468)">48</text>
      </g>
      <g id="otf-49" data-field="49" data-arm="yellow">
        <rect x="140" y="410" width="30" height="60"/>
        <text x="140" y="468" font-family="Segoe UI, Arial, sans-serif" font-size="10" fill="#111" text-anchor="end" dominant-baseline="text-after-edge" transform="rotate(90 140 468)">49</text>
      </g>
      <g id="otf-50" data-field="50" data-arm="yellow">
        <rect x="110" y="410" width="30" height="60"/>
        <text x="110" y="468" font-family="Segoe UI, Arial, sans-serif" font-size="10" fill="#111" text-anchor="end" dominant-baseline="text-after-edge" transform="rotate(90 110 468)">50</text>
      </g>
      <g id="otf-51" data-field="51" data-arm="yellow">
        <rect x="110" y="470" width="30" height="60"/>
        <text x="110" y="528" font-family="Segoe UI, Arial, sans-serif" font-size="10" fill="#111" text-anchor="end" dominant-baseline="text-after-edge" transform="rotate(90 110 528)">51</text>
      </g>
      <g id="otf-52" data-field="52" data-arm="yellow">
        <rect x="110" y="530" width="30" height="60"/>
        <text x="110" y="588" font-family="Segoe UI, Arial, sans-serif" font-size="10" fill="#111" text-anchor="end" dominant-baseline="text-after-edge" transform="rotate(90 110 588)">52</text>
      </g>
      <g id="otf-53" data-field="53" data-arm="yellow">
        <rect x="140" y="530" width="30" height="60"/>
        <text x="140" y="588" font-family="Segoe UI, Arial, sans-serif" font-size="10" fill="#111" text-anchor="end" dominant-baseline="text-after-edge" transform="rotate(90 140 588)">53</text>
      </g>
      <g id="otf-54" data-field="54" data-arm="yellow">
        <rect x="170" y="530" width="30" height="60"/>
        <text x="170" y="588" font-family="Segoe UI, Arial, sans-serif" font-size="10" fill="#111" text-anchor="end" dominant-baseline="text-after-edge" transform="rotate(90 170 588)">54</text>
      </g>
      <g id="otf-55" data-field="55" data-arm="yellow">
        <rect x="200" y="530" width="30" height="60"/>
        <text x="200" y="588" font-family="Segoe UI, Arial, sans-serif" font-size="10" fill="#111" text-anchor="end" dominant-baseline="text-after-edge" transform="rotate(90 200 588)">55</text>
      </g>
      <g id="otf-56" data-field="56" data-arm="yellow">
        <rect x="230" y="530" width="30" height="60" fill="#f7e7a8"/>
        <text x="230" y="588" font-family="Segoe UI, Arial, sans-serif" font-size="10" fill="#111" text-anchor="end" dominant-baseline="text-after-edge" transform="rotate(90 230 588)">56</text>
      </g>
      <g id="otf-57" data-field="57" data-arm="yellow">
        <rect x="260" y="530" width="30" height="60"/>
        <text x="260" y="588" font-family="Segoe UI, Arial, sans-serif" font-size="10" fill="#111" text-anchor="end" dominant-baseline="text-after-edge" transform="rotate(90 260 588)">57</text>
      </g>
      <g id="otf-58" data-field="58" data-arm="yellow">
        <rect x="290" y="530" width="30" height="60"/>
        <text x="290" y="588" font-family="Segoe UI, Arial, sans-serif" font-size="10" fill="#111" text-anchor="end" dominant-baseline="text-after-edge" transform="rotate(90 290 588)">58</text>
      </g>
      <g id="otf-59" data-field="59" data-arm="yellow">
        <rect x="320" y="530" width="30" height="60"/>
        <text x="320" y="588" font-family="Segoe UI, Arial, sans-serif" font-size="10" fill="#111" text-anchor="end" dominant-baseline="text-after-edge" transform="rotate(90 320 588)">59</text>
      </g>
      </g>
      <g id="outer-track-fields-bottom-2" transform="translate(500 890) scale(1.1666667) translate(-500 -890)">
      <g id="otf-60" data-field="60" data-arm="green">
        <rect x="410" y="650" width="60" height="30"/>
        <text x="468" y="680" font-family="Segoe UI, Arial, sans-serif" font-size="10" fill="#111" text-anchor="end" dominant-baseline="text-after-edge">60</text>
      </g>
      <g id="otf-61" data-field="61" data-arm="green">
        <rect x="410" y="680" width="60" height="30"/>
        <text x="468" y="710" font-family="Segoe UI, Arial, sans-serif" font-size="10" fill="#111" text-anchor="end" dominant-baseline="text-after-edge">61</text>
      </g>
      <g id="otf-62" data-field="62" data-arm="green">
        <rect x="410" y="710" width="60" height="30"/>
        <text x="468" y="740" font-family="Segoe UI, Arial, sans-serif" font-size="10" fill="#111" text-anchor="end" dominant-baseline="text-after-edge">62</text>
      </g>
      <g id="otf-63" data-field="63" data-arm="green">
        <rect x="410" y="740" width="60" height="30"/>
        <text x="468" y="770" font-family="Segoe UI, Arial, sans-serif" font-size="10" fill="#111" text-anchor="end" dominant-baseline="text-after-edge">63</text>
      </g>
      <g id="otf-64" data-field="64" data-arm="green">
        <rect x="410" y="770" width="60" height="30"/>
        <text x="468" y="800" font-family="Segoe UI, Arial, sans-serif" font-size="10" fill="#111" text-anchor="end" dominant-baseline="text-after-edge">64</text>
      </g>
      <g id="otf-65" data-field="65" data-arm="green">
        <rect x="410" y="800" width="60" height="30"/>
        <text x="468" y="830" font-family="Segoe UI, Arial, sans-serif" font-size="10" fill="#111" text-anchor="end" dominant-baseline="text-after-edge">65</text>
      </g>
      <g id="otf-66" data-field="66" data-arm="green">
        <rect x="410" y="830" width="60" height="30"/>
        <text x="468" y="860" font-family="Segoe UI, Arial, sans-serif" font-size="10" fill="#111" text-anchor="end" dominant-baseline="text-after-edge">66</text>
      </g>
      <g id="otf-67" data-field="67" data-arm="green">
        <rect x="410" y="860" width="60" height="30"/>
        <text x="468" y="890" font-family="Segoe UI, Arial, sans-serif" font-size="10" fill="#111" text-anchor="end" dominant-baseline="text-after-edge">67</text>
      </g>
      <g id="otf-68" data-field="68" data-arm="green">
        <rect x="470" y="860" width="60" height="30"/>
        <text x="528" y="890" font-family="Segoe UI, Arial, sans-serif" font-size="10" fill="#111" text-anchor="end" dominant-baseline="text-after-edge">68</text>
      </g>
      </g>
    </g>
  </g>



  <!-- Pawns: initial setup (4 per color in nests) -->
  <g stroke="#222" stroke-width="2">
    <!-- Red -->
    <circle cx="215" cy="215" r="13" fill="#d94848"/>
    <circle cx="275" cy="215" r="13" fill="#d94848"/>
    <circle cx="215" cy="275" r="13" fill="#d94848"/>
    <circle cx="275" cy="275" r="13" fill="#d94848"/>

    <!-- Blue -->
    <circle cx="725" cy="215" r="13" fill="#4779d9"/>
    <circle cx="785" cy="215" r="13" fill="#4779d9"/>
    <circle cx="725" cy="275" r="13" fill="#4779d9"/>
    <circle cx="785" cy="275" r="13" fill="#4779d9"/>

    <!-- Yellow -->
    <circle cx="215" cy="725" r="13" fill="#d6b229"/>
    <circle cx="275" cy="725" r="13" fill="#d6b229"/>
    <circle cx="215" cy="785" r="13" fill="#d6b229"/>
    <circle cx="275" cy="785" r="13" fill="#d6b229"/>

    <!-- Green -->
    <circle cx="725" cy="725" r="13" fill="#4ea64e"/>
    <circle cx="785" cy="725" r="13" fill="#4ea64e"/>
    <circle cx="725" cy="785" r="13" fill="#4ea64e"/>
    <circle cx="785" cy="785" r="13" fill="#4ea64e"/>
  </g>

  <!-- Safe spaces (entry + additional safe squares) -->
  <g id="safe-spaces">
    <g id="safe-spaces-top" transform="translate(500 110) scale(1.1666667) translate(-500 -110)">
      <use href="#safety_space" transform="translate(485 110) scale(1.25)"/>
      <use href="#safety_space" transform="translate(545 230) scale(1.25)"/>
      <use href="#safety_space" transform="translate(425 230) scale(1.25)"/>
    </g>
    <g id="safe-spaces-right" transform="translate(890 500) scale(1.1666667) translate(-890 -500)">
      <use href="#safety_space" transform="translate(860 485) scale(1.25)"/>
      <use href="#safety_space" transform="translate(740 545) scale(1.25)"/>
      <use href="#safety_space" transform="translate(740 425) scale(1.25)"/>
    </g>
    <g id="safe-spaces-bottom" transform="translate(500 890) scale(1.1666667) translate(-500 -890)">
      <use href="#safety_space" transform="translate(485 860) scale(1.25)"/>
      <use href="#safety_space" transform="translate(545 740) scale(1.25)"/>
      <use href="#safety_space" transform="translate(425 740) scale(1.25)"/>
    </g>
    <g id="safe-spaces-left" transform="translate(110 500) scale(1.1666667) translate(-110 -500)">
      <use href="#safety_space" transform="translate(110 485) scale(1.25)"/>
      <use href="#safety_space" transform="translate(230 425) scale(1.25)"/>
      <use href="#safety_space" transform="translate(230 545) scale(1.25)"/>
    </g>
  </g>

  <!-- Labels -->
  <g font-family="Segoe UI, Arial, sans-serif" font-size="24" fill="#222" text-anchor="middle">
    <text x="500" y="507" font-size="28" font-weight="700">HOME</text>
  </g>
</svg>
